<svg xmlns="http://www.w3.org/2000/svg" xmlns:xlink="http://www.w3.org/1999/xlink" width="375" height="44" viewBox="0 0 375 44">
  <defs>
    <clipPath id="clip-path">
      <rect id="Rectangle_5" data-name="Rectangle 5" width="375" height="44" fill="#fff"/>
    </clipPath>
  </defs>
  <g id="status_bar_iphone_11_Light" data-name="status bar iphone 11 Light" clip-path="url(#clip-path)">
    <path id="Tracé_21" data-name="Tracé 21" d="M78-2H297a5.047,5.047,0,0,0-3.655,4.684l-.028.877A24.439,24.439,0,0,1,268.878,28H106.122A24.438,24.438,0,0,1,81.684,3.562l-.029-.877A5.045,5.045,0,0,0,78-2Z" transform="translate(0.373)" fill="#919191"/>
    <g id="Groupe_8" data-name="Groupe 8" transform="translate(298.667 17.331)">
      <g id="Groupe_7" data-name="Groupe 7" transform="translate(42.833 0.503)">
        <path id="Tracé_22" data-name="Tracé 22" d="M336.5,20a2.167,2.167,0,0,1,2.167-2.167h16.666A2.167,2.167,0,0,1,357.5,20v6a2.167,2.167,0,0,1-2.167,2.167H338.667A2.167,2.167,0,0,1,336.5,26Z" transform="translate(-336.5 -17.833)" fill="none" stroke="#000" stroke-width="1" opacity="0.35"/>
        <path id="Tracé_23" data-name="Tracé 23" d="M359,21v4a2.17,2.17,0,0,0,0-4Z" transform="translate(-336.5 -17.833)" opacity="0.4"/>
        <path id="Tracé_24" data-name="Tracé 24" d="M338,20.667a1.333,1.333,0,0,1,1.333-1.333h15.334A1.333,1.333,0,0,1,356,20.667v4.667a1.333,1.333,0,0,1-1.333,1.333H339.333A1.333,1.333,0,0,1,338,25.333Z" transform="translate(-336.5 -17.833)"/>
      </g>
      <path id="Tracé_25" data-name="Tracé 25" d="M323.33,19.608a8.641,8.641,0,0,1,5.953,2.378.309.309,0,0,0,.434,0l1.156-1.167a.322.322,0,0,0,0-.456,10.9,10.9,0,0,0-15.08,0,.322.322,0,0,0,0,.456l1.156,1.167a.308.308,0,0,0,.434,0A8.64,8.64,0,0,1,323.33,19.608Zm0,3.8a4.905,4.905,0,0,1,3.294,1.27.311.311,0,0,0,.434-.006l1.154-1.167a.322.322,0,0,0,0-.459,7.16,7.16,0,0,0-9.753,0,.322.322,0,0,0,0,.459l1.154,1.167a.311.311,0,0,0,.434.006A4.907,4.907,0,0,1,323.33,23.4Zm2.313,2.554a.312.312,0,0,1-.094.23l-2,2.016a.311.311,0,0,1-.443,0l-2-2.016a.313.313,0,0,1,.01-.457,3.421,3.421,0,0,1,4.419,0A.312.312,0,0,1,325.643,25.958Z" transform="translate(-293.667 -17.331)" fill-rule="evenodd"/>
      <path id="Tracé_26" data-name="Tracé 26" d="M309.667,17.667h-1a1,1,0,0,0-1,1v8.667a1,1,0,0,0,1,1h1a1,1,0,0,0,1-1V18.667A1,1,0,0,0,309.667,17.667ZM304,20h1a1,1,0,0,1,1,1v6.333a1,1,0,0,1-1,1h-1a1,1,0,0,1-1-1V21A1,1,0,0,1,304,20Zm-3.667,2.333h-1a1,1,0,0,0-1,1v4a1,1,0,0,0,1,1h1a1,1,0,0,0,1-1v-4A1,1,0,0,0,300.333,22.333Zm-4.666,2h-1a1,1,0,0,0-1,1v2a1,1,0,0,0,1,1h1a1,1,0,0,0,1-1v-2A1,1,0,0,0,295.667,24.333Z" transform="translate(-293.667 -17.331)" fill-rule="evenodd"/>
    </g>
    <g id="Groupe_1" data-name="Groupe 1" transform="translate(25.453 17.167)">
      <path id="Tracé_27" data-name="Tracé 27" d="M37.321,28.256c2.688,0,4.285-2.1,4.285-5.662a6.788,6.788,0,0,0-.747-3.34,3.746,3.746,0,0,0-3.479-2.087,3.675,3.675,0,0,0-3.926,3.713A3.384,3.384,0,0,0,36.932,24.4a2.922,2.922,0,0,0,2.739-1.582H39.8c0,2.417-.916,3.86-2.461,3.86a1.838,1.838,0,0,1-1.853-1.3H33.6A3.561,3.561,0,0,0,37.321,28.256Zm.066-5.361a2,2,0,0,1-2.08-2.073,2.088,2.088,0,1,1,4.175.029A2.007,2.007,0,0,1,37.387,22.9Z" transform="translate(-33.453 -17.167)"/>
      <path id="Tracé_28" data-name="Tracé 28" d="M44.7,28.154A1.157,1.157,0,1,0,43.525,27,1.123,1.123,0,0,0,44.7,28.154Zm0-5.493a1.154,1.154,0,1,0-1.172-1.15A1.118,1.118,0,0,0,44.7,22.661Z" transform="translate(-33.453 -17.167)"/>
      <path id="Tracé_29" data-name="Tracé 29" d="M52.724,28h1.809V26.03h1.428v-1.6H54.533v-7H51.867c-1.868,2.813-3.354,5.163-4.307,6.914V26.03h5.163Zm-3.413-3.633c1.23-2.168,2.329-3.9,3.34-5.4h.1v5.508H49.311Z" transform="translate(-33.453 -17.167)"/>
      <path id="Tracé_30" data-name="Tracé 30" d="M59.99,28h1.89V17.431H60l-2.761,1.934v1.816l2.629-1.846h.125Z" transform="translate(-33.453 -17.167)"/>
    </g>
  </g>
</svg>
